<svg id="Layer_1" data-name="Layer 1" xmlns="http://www.w3.org/2000/svg" viewBox="0 0 273.33 36.69"><defs><style>.cls-1{fill:#3059a6;}</style></defs><title>core-inventory-logo</title><path class="cls-1" d="M414.72,310.51l-1,3.3a12,12,0,0,0-3.57-.23c-2,.49-2.33,2.33-2.37,4-0.1,3.9,0,7.8,0,11.78h-5.45V309.12h5v2.26l0.24,0.11,0.72-1.05c1.1-1.62,2.68-2,4.66-1.73a54.07,54.07,0,0,0,6.53.33,1.15,1.15,0,0,1,1.32.94c1.3,4.16,2.69,8.3,4.05,12.44a6.6,6.6,0,0,0,.43.78c0.63-1.9,1.19-3.56,1.72-5.24,0.9-2.82,1.76-5.65,2.69-8.46a1.1,1.1,0,0,1,.86-0.42c1.64,0,3.28,0,5.06,0-0.84,2.37-1.64,4.67-2.48,7q-2.44,6.63-4.92,13.25c-0.57,1.53-1.22,3-1.82,4.55-1.1,2.76-3.42,3.61-6.1,3.78a30.62,30.62,0,0,1-3.55-.17l-0.52-3.9a13.14,13.14,0,0,0,3.44-.24c2.3-.81,3-3.22,2-5.89-2-5.28-4-10.57-6-15.85a9.76,9.76,0,0,0-.57-1.09Z" transform="translate(-162.19 -300.92)"/><path class="cls-1" d="M181.74,319.12l5.17,1.75c-1.21,4-3.21,7.16-7.36,8.39s-8.09,1-11.71-1.47a12.68,12.68,0,0,1-5.44-9.23,21.05,21.05,0,0,1,.52-8.54,12.16,12.16,0,0,1,10-8.91,12.9,12.9,0,0,1,9.55,1.92c1.94,1.34,3.05,3,4.18,6.44-1.6.34-3.18,0.7-4.78,1a1,1,0,0,1-.69-0.6c-0.73-2.78-3.87-4.51-6.77-4.14a6.55,6.55,0,0,0-5.92,4.93,17.66,17.66,0,0,0,.21,10,6.48,6.48,0,0,0,6.23,4.48,6.28,6.28,0,0,0,6.21-4.49C181.33,320.14,181.54,319.64,181.74,319.12Z" transform="translate(-162.19 -300.92)"/><path class="cls-1" d="M190.27,319.13c0.06-6.14,4.23-10.65,10.85-10.56,5.84,0.08,10.46,4.5,10.29,11.13a10.38,10.38,0,0,1-10.92,10.22C194.52,329.67,190.27,326,190.27,319.13Zm5.25,0.53c0.17,2,.57,4.12,3,5.48a4.42,4.42,0,0,0,5-.3c2.59-2,2.73-7.27,1.2-9.8a4.59,4.59,0,0,0-7.32-1C196,315.58,195.57,317.31,195.52,319.66Z" transform="translate(-162.19 -300.92)"/><path class="cls-1" d="M397.87,319.28A10.35,10.35,0,0,1,387,329.93c-5.92-.24-10.55-3.88-10.25-11.33,0.22-5.6,4.05-10.11,10.88-10C393.5,308.67,397.91,313.07,397.87,319.28Zm-15.86,0c0,2.49.67,4.66,3,6a4.86,4.86,0,0,0,4.93-.43c2.87-2.17,2.92-9,0-11.28-1.28-1-4.55-1.14-5.75.05A7.4,7.4,0,0,0,382,319.31Z" transform="translate(-162.19 -300.92)"/><path class="cls-1" d="M337,320.82H323.08a4.93,4.93,0,0,0,2.61,4.73,4.26,4.26,0,0,0,4.58-.85,0.78,0.78,0,0,0,.24-0.26c0.33-2,1.83-1.28,3-1.2a26.83,26.83,0,0,1,2.86.51c-1.33,4.14-3.93,5.75-7.75,6.14A9.49,9.49,0,0,1,320.2,327a9.8,9.8,0,0,1-2.43-5.85c-0.31-3.08,0-6.16,1.88-8.8a9.31,9.31,0,0,1,9.46-3.66,9.12,9.12,0,0,1,7.58,8.7C336.74,318.53,336.89,319.61,337,320.82Zm-5.42-3.42c0.08-2.58-1.52-4.58-3.84-4.72-2.07-.12-4.34.67-4.71,4.72h8.56Z" transform="translate(-162.19 -300.92)"/><path class="cls-1" d="M247.65,324a7,7,0,0,1-3.89,4.89,10.56,10.56,0,0,1-10.74-.6,8.26,8.26,0,0,1-3.51-5.52c-0.73-3.62-.61-7.15,1.58-10.29,2.32-3.32,5.7-4.3,9.33-3.75a9,9,0,0,1,7.71,8.84c0.05,1.05.21,2.1,0.33,3.27H234.55a4.82,4.82,0,0,0,2.57,4.73,4.23,4.23,0,0,0,4.66-.9,1.33,1.33,0,0,0,.16-0.18c0.29-.49.52-1.33,0.87-1.39a8.09,8.09,0,0,1,2.42.27c0.77,0.12,1.53.27,2.3,0.4A0.45,0.45,0,0,0,247.65,324ZM243,317.41a4.14,4.14,0,0,0-3.83-4.73c-2.74-.09-4.38,1.19-4.62,4.73H243Z" transform="translate(-162.19 -300.92)"/><path class="cls-1" d="M274.32,329.38V309.12h4.88l0.43,2a24.92,24.92,0,0,1,3.52-2c3.89-1.49,9.3,0,9.35,6.09,0,4.71,0,9.42,0,14.2h-5.28v-5.84c0-2.2.08-4.4,0-6.59a4.93,4.93,0,0,0-1-3.39c-1.52-1.68-4.78-.83-5.6.82a9.14,9.14,0,0,0-1,3.68c-0.12,3.75,0,7.5,0,11.32h-5.23Z" transform="translate(-162.19 -300.92)"/><path class="cls-1" d="M346.51,329.44h-5.19v-20.3h4.9v2.49c0.82-.63,1.44-1.12,2.07-1.59a7.59,7.59,0,0,1,9,0,5.62,5.62,0,0,1,2.16,4.61c0.14,4.9,0,9.81,0,14.78h-5.28c0-3.23,0-6.42,0-9.61,0-1.38-.17-2.76-0.22-4.14-0.1-3-3.19-3.63-5.23-2.43-1.83,1.08-2.16,2.9-2.2,4.76-0.07,3.48,0,7,0,10.43v1Z" transform="translate(-162.19 -300.92)"/><path class="cls-1" d="M295.59,309.12h5.7l4.53,13.39,4.56-13.41h5.73c-0.64,1.71-1.23,3.34-1.86,5-1.88,4.87-3.79,9.72-5.64,14.6a1,1,0,0,1-1.19.81,22.32,22.32,0,0,0-2.88,0,1.29,1.29,0,0,1-1.47-1c-2.4-6.21-4.83-12.41-7.25-18.61C295.74,309.65,295.68,309.43,295.59,309.12Z" transform="translate(-162.19 -300.92)"/><path class="cls-1" d="M375,324.92c0.12,1.2.29,2.33,0.33,3.47a1.19,1.19,0,0,1-.54,1c-2.13.6-4.3,1-6.45,0.07A3.84,3.84,0,0,1,366,326.6a13.15,13.15,0,0,1-.27-2.7c0-3.55,0-7.1,0-10.72h-2.55V309.1h2.55c0-1.1-.06-2.09,0-3.07a1.63,1.63,0,0,1,.6-1.09c1.48-1,3-1.89,4.68-2.91v7h3.71v4.08H371v7.27c0,1,0,2,0,3,0,1.6.89,2.33,2.43,2C373.95,325.24,374.46,325.06,375,324.92Z" transform="translate(-162.19 -300.92)"/><path class="cls-1" d="M263.31,301.43h5.62v27.94h-5.62V301.43Z" transform="translate(-162.19 -300.92)"/><path class="cls-1" d="M215.8,329.4a2,2,0,0,1-.08-0.38c0-6.59,0-13.18,0-19.87h5v2l0.22,0.34c1.93-3.19,4.42-3.7,7.49-1.91l-1.3,4.64a3.84,3.84,0,0,0-3.68-.63c-1.82.77-2.15,2.43-2.19,4.07-0.09,3.89,0,7.78,0,11.73H215.8Z" transform="translate(-162.19 -300.92)"/><path class="cls-1" d="M247.54,323.75l0.3,0.08-0.19.13A0.45,0.45,0,0,1,247.54,323.75Z" transform="translate(-162.19 -300.92)"/></svg>